<svg width="36" height="36" viewBox="0 0 36 36" fill="none" xmlns="http://www.w3.org/2000/svg">
<path fill-rule="evenodd" clip-rule="evenodd" d="M11.6837 8.10519C12.4943 8.09014 13.3037 8.17324 14.0944 8.35269C14.7601 8.49803 15.3921 8.76847 15.9568 9.14965C16.4784 9.52869 16.8911 10.0383 17.1535 10.6273C17.4551 11.3515 17.6005 12.1312 17.5805 12.9154C17.6147 13.7766 17.3948 14.6287 16.9481 15.3657C16.4782 16.0618 15.8286 16.6177 15.0683 16.9745C16.1001 17.2527 16.9988 17.8898 17.6027 18.7714C18.1825 19.7055 18.474 20.7898 18.4405 21.8887C18.4597 22.7648 18.2785 23.6338 17.9109 24.4293C17.5711 25.1233 17.0735 25.7281 16.458 26.1953C15.8244 26.6573 15.1113 26.9992 14.3542 27.2038C13.5692 27.421 12.7581 27.5301 11.9436 27.5281H3V8.10519H11.6837ZM11.1676 15.961C11.8045 15.9872 12.4315 15.7966 12.9459 15.4202C13.1923 15.2008 13.384 14.9269 13.5056 14.6203C13.6272 14.3136 13.6754 13.9828 13.6464 13.6542C13.6629 13.2705 13.5865 12.8884 13.4236 12.5405C13.2855 12.2635 13.0707 12.0319 12.8049 11.8734C12.5356 11.699 12.233 11.5822 11.9163 11.5306C11.5727 11.4641 11.2231 11.4338 10.8731 11.4403H7.05164V15.9783H11.1676V15.961ZM11.3904 24.2301C11.7756 24.2353 12.1599 24.1937 12.5351 24.1063C12.8779 24.0306 13.2031 23.8899 13.4929 23.6918C13.7769 23.4937 14.0063 23.2273 14.16 22.9171C14.3381 22.5215 14.42 22.0893 14.3988 21.656C14.4374 21.2612 14.3851 20.8627 14.2459 20.4912C14.1067 20.1196 13.8843 19.7849 13.5956 19.5126C12.9839 19.0621 12.2343 18.8389 11.4758 18.8815H7.05164V24.2301H11.3904Z" fill="#CACACA" style="fill:#CACACA;fill:color(display-p3 0.7922 0.7922 0.7922);fill-opacity:1;"/>
<path fill-rule="evenodd" clip-rule="evenodd" d="M24.2111 24.1583C24.5291 24.453 24.9037 24.6801 25.3122 24.8256C25.7206 24.9711 26.1544 25.0321 26.5871 25.0048C27.2732 25.0221 27.9459 24.8134 28.5016 24.4108C28.9537 24.1168 29.2961 23.6818 29.4755 23.1732H32.7067C32.3624 24.6209 31.5217 25.9022 30.3306 26.7942C29.1881 27.5526 27.8378 27.9367 26.4671 27.8931C25.4888 27.906 24.518 27.7221 23.6121 27.3523C22.7928 27.0106 22.0579 26.4941 21.4589 25.8389C20.8621 25.1523 20.4036 24.3568 20.1087 23.4962C19.7777 22.5343 19.6157 21.5223 19.6298 20.5051C19.6238 19.505 19.7913 18.5114 20.1248 17.5685C20.5729 16.242 21.4298 15.0916 22.5723 14.2823C23.7149 13.473 25.0844 13.0465 26.4844 13.0639C27.5181 13.0423 28.5402 13.2842 29.4545 13.7668C30.2809 14.22 30.9939 14.8547 31.5397 15.6231C32.098 16.4294 32.4982 17.3344 32.7191 18.29C32.9612 19.3161 33.0476 20.3728 32.9752 21.4246H23.351C23.273 22.4128 23.5814 23.3928 24.2111 24.1583ZM28.4335 16.7715C28.1642 16.5022 27.8403 16.2936 27.4836 16.16C27.1269 16.0264 26.7457 15.9707 26.3656 15.9968C25.8615 15.9776 25.3609 16.0893 24.9128 16.3211C24.5575 16.5167 24.2439 16.7798 23.9896 17.0958C23.7642 17.392 23.5963 17.7278 23.4946 18.0858C23.4029 18.3844 23.3456 18.6924 23.3238 19.004H29.2849C29.233 18.1918 28.9371 17.4141 28.436 16.7728L28.4335 16.7715Z" fill="#CACACA" style="fill:#CACACA;fill:color(display-p3 0.7922 0.7922 0.7922);fill-opacity:1;"/>
<path d="M22.5553 9.40208H30.025V11.3116H22.5553V9.40208Z" fill="#CACACA" style="fill:#CACACA;fill:color(display-p3 0.7922 0.7922 0.7922);fill-opacity:1;"/>
</svg>
