<svg width="36" height="36" viewBox="0 0 36 36" fill="none" xmlns="http://www.w3.org/2000/svg">
<path fill-rule="evenodd" clip-rule="evenodd" d="M11.2626 7.00192C12.1272 6.9852 12.9906 7.07757 13.834 7.27703C14.5441 7.43857 15.2182 7.73917 15.8206 8.16285C16.377 8.58416 16.8172 9.15057 17.0971 9.80521C17.4187 10.6102 17.5739 11.4768 17.5525 12.3485C17.589 13.3057 17.3544 14.2528 16.878 15.072C16.3767 15.8457 15.6838 16.4636 14.8728 16.8602C15.9734 17.1694 16.932 17.8776 17.5763 18.8574C18.1947 19.8957 18.5056 21.1009 18.4699 22.3223C18.4903 23.2962 18.2971 24.262 17.9049 25.1463C17.5425 25.9176 17.0117 26.5898 16.3552 27.1091C15.6793 27.6227 14.9187 28.0026 14.1112 28.2301C13.2738 28.4715 12.4087 28.5928 11.5398 28.5905H2V7.00192H11.2626ZM10.7121 15.7337C11.3915 15.7628 12.0603 15.5509 12.609 15.1326C12.8718 14.8888 13.0763 14.5843 13.206 14.2435C13.3357 13.9026 13.3871 13.5349 13.3561 13.1697C13.3737 12.7431 13.2922 12.3185 13.1185 11.9317C12.9712 11.6239 12.7421 11.3665 12.4585 11.1903C12.1713 10.9964 11.8486 10.8667 11.5108 10.8093C11.1442 10.7353 10.7713 10.7017 10.398 10.7089H6.32175V15.7529H10.7121V15.7337ZM10.9497 24.9248C11.3606 24.9306 11.7706 24.8844 12.1708 24.7872C12.5365 24.7031 12.8833 24.5467 13.1925 24.3264C13.4954 24.1064 13.7401 23.8102 13.904 23.4654C14.094 23.0257 14.1813 22.5454 14.1587 22.0637C14.1999 21.6248 14.1441 21.1819 13.9956 20.769C13.8471 20.356 13.6099 19.984 13.302 19.6814C12.6495 19.1806 11.8499 18.9325 11.0408 18.9798H6.32175V24.9248H10.9497Z" fill="#CACACA" style="fill:#CACACA;fill:color(display-p3 0.7922 0.7922 0.7922);fill-opacity:1;"/>
<path fill-rule="evenodd" clip-rule="evenodd" d="M24.6252 24.845C24.9644 25.1726 25.364 25.425 25.7997 25.5867C26.2353 25.7485 26.698 25.8162 27.1596 25.7859C27.8914 25.8051 28.6089 25.5731 29.2017 25.1256C29.6839 24.7989 30.0491 24.3153 30.2406 23.7501H33.6871C33.3199 25.3592 32.4231 26.7833 31.1527 27.7748C29.9339 28.6178 28.4936 29.0447 27.0316 28.9963C25.9881 29.0106 24.9525 28.8061 23.9863 28.3952C23.1123 28.0154 22.3284 27.4413 21.6895 26.713C21.0529 25.9498 20.5639 25.0656 20.2493 24.1091C19.8962 23.0399 19.7234 21.9151 19.7385 20.7845C19.732 19.6729 19.9107 18.5685 20.2665 17.5204C20.7445 16.046 21.6584 14.7673 22.8771 13.8678C24.0958 12.9683 25.5567 12.4942 27.0501 12.5136C28.1526 12.4896 29.2429 12.7584 30.2181 13.2949C31.0997 13.7986 31.8601 14.504 32.4423 15.3581C33.0379 16.2544 33.4648 17.2602 33.7003 18.3224C33.9586 19.4629 34.0508 20.6374 33.9736 21.8065H23.7078C23.6246 22.9049 23.9534 23.9941 24.6252 24.845ZM29.1291 16.6346C28.8418 16.3352 28.4963 16.1034 28.1158 15.9549C27.7353 15.8063 27.3287 15.7445 26.9233 15.7735C26.3856 15.7522 25.8517 15.8763 25.3736 16.1339C24.9947 16.3513 24.6601 16.6438 24.3889 16.995C24.1485 17.3242 23.9694 17.6975 23.8609 18.0954C23.7631 18.4273 23.702 18.7697 23.6787 19.116H30.0373C29.9819 18.2132 29.6663 17.3488 29.1317 16.636L29.1291 16.6346Z" fill="#CACACA" style="fill:#CACACA;fill:color(display-p3 0.7922 0.7922 0.7922);fill-opacity:1;"/>
<path d="M22.859 8.44343H30.8266V10.5658H22.859V8.44343Z" fill="#CACACA" style="fill:#CACACA;fill:color(display-p3 0.7922 0.7922 0.7922);fill-opacity:1;"/>
</svg>
