<svg width="13" height="23" viewBox="0 0 13 23" fill="none" xmlns="http://www.w3.org/2000/svg">
<path d="M6.41166 0C7.32757 0 8.18503 0.125487 8.98352 0.376465C9.78208 0.627488 10.4872 0.983151 11.0978 1.44336C11.6849 1.90353 12.1547 2.47873 12.507 3.16895C12.8358 3.8383 13 4.59154 13 5.42822C13 6.0767 12.8945 6.68373 12.6831 7.24854C12.4483 7.81326 12.1547 8.34664 11.8024 8.84863C11.4267 9.32971 11.0036 9.78975 10.5339 10.229C10.0407 10.6683 9.53567 11.0869 9.01896 11.4844C9.53566 11.9237 10.0407 12.3526 10.5339 12.771C11.0036 13.1893 11.4267 13.639 11.8024 14.1201C12.1547 14.5803 12.4483 15.093 12.6831 15.6577C12.8945 16.2015 13 16.8186 13 17.5088C13 18.3664 12.8358 19.13 12.507 19.7993C12.1547 20.4687 11.6964 21.0443 11.1327 21.5254C10.5456 22.0064 9.85284 22.3725 9.0544 22.6235C8.25589 22.8745 7.39847 23 6.48254 23C5.56656 23 4.72066 22.8849 3.9456 22.6548C3.14713 22.4038 2.46582 22.0481 1.90218 21.5879C1.31511 21.1277 0.857221 20.5629 0.528442 19.8936C0.17615 19.2242 0 18.471 0 17.6343C1.15793e-05 16.944 0.117438 16.3162 0.352295 15.7515C0.587153 15.1658 0.904164 14.6324 1.30339 14.1514C1.67914 13.6494 2.12556 13.1893 2.64221 12.771C3.13541 12.3317 3.66389 11.9027 4.22754 11.4844C4.225 11.4825 4.22267 11.4804 4.22013 11.4785L6.58411 9.59863L6.5603 9.57812C6.5697 9.58587 6.57899 9.59387 6.58834 9.60156C6.94058 9.32966 7.29298 9.03687 7.64522 8.72314C7.97401 8.40938 8.27905 8.07434 8.56087 7.71875C8.81919 7.36317 9.03072 6.9971 9.19511 6.62061C9.35947 6.22322 9.4416 5.80494 9.44161 5.36572C9.44161 4.59178 9.15993 3.99552 8.59631 3.57715C8.03263 3.15878 7.3395 2.94971 6.51746 2.94971C5.6955 2.94974 4.99081 3.17949 4.40369 3.63965C3.81651 4.07894 3.52295 4.68597 3.52295 5.45996C3.52298 5.87826 3.62898 6.2862 3.84033 6.68359C4.02821 7.06006 4.27456 7.42618 4.57983 7.78174C4.76907 7.98918 4.9729 8.19171 5.18921 8.39111L2.77393 10.3662C2.73007 10.331 2.6859 10.2961 2.64221 10.2607C2.1255 9.82145 1.67918 9.36101 1.30339 8.87988C0.904168 8.37789 0.587145 7.84451 0.352295 7.27979C0.117426 6.69406 0 6.06637 0 5.39697C3.57713e-06 4.56024 0.164188 3.80708 0.493001 3.1377C0.821818 2.4683 1.2801 1.90357 1.86727 1.44336C2.43093 0.983182 3.10022 0.627481 3.87524 0.376465C4.65024 0.125465 5.49577 2.39891e-05 6.41166 0ZM6.58887 13.3667C6.59005 13.3677 6.59615 13.3728 6.60632 13.3813C6.60025 13.3767 6.5944 13.3718 6.58834 13.3672C6.28303 13.6182 5.95409 13.9109 5.60181 14.2456C5.22602 14.5803 4.88516 14.936 4.57983 15.3125C4.27459 15.668 4.0282 16.0445 3.84033 16.4419C3.62897 16.8393 3.52297 17.2369 3.52295 17.6343C3.52295 18.3664 3.83996 18.9523 4.47404 19.3916C5.0847 19.81 5.77783 20.019 6.5529 20.019C7.39829 20.019 8.09107 19.7995 8.63123 19.3604C9.17142 18.9211 9.44161 18.314 9.44161 17.54C9.44158 17.1427 9.35949 16.745 9.19511 16.3477C9.00725 15.9503 8.78425 15.5738 8.52596 15.2183C8.35071 14.9971 8.16502 14.785 7.9716 14.5801L10.3663 12.6338L9.0179 11.4844L6.58887 13.3667ZM7.60978 14.2144C7.7341 14.333 7.854 14.4555 7.9716 14.5801L7.97054 14.5815C7.97054 14.5815 7.73218 14.3368 7.53361 14.1475C7.55879 14.1697 7.58448 14.1918 7.60978 14.2144ZM7.30509 13.9453C7.35154 13.9767 7.43759 14.0559 7.53361 14.1475C7.44343 14.0679 7.35405 13.9904 7.26542 13.915C7.28128 13.9268 7.294 13.9378 7.30509 13.9453ZM6.60632 13.3813C6.82108 13.5458 7.04067 13.7238 7.26542 13.915C7.09898 13.7915 6.69544 13.4561 6.60632 13.3813ZM4.22013 11.4785L4.21696 11.4814L3.95459 11.2812C4.04283 11.3472 4.13126 11.4131 4.22013 11.4785ZM2.77393 10.3662C2.93373 10.4946 3.09485 10.6217 3.25688 10.748L2.76599 10.373L2.77393 10.3662ZM6.5603 9.57812C6.26295 9.33294 5.94329 9.05854 5.60181 8.75439C5.45893 8.63509 5.3219 8.51344 5.18921 8.39111L5.19027 8.39062L6.5603 9.57812Z" fill="#D9D9D9" style="fill:#D9D9D9;fill:color(display-p3 0.8510 0.8510 0.8510);fill-opacity:1;"/>
</svg>
