<svg width="36" height="36" viewBox="0 0 36 36" fill="none" xmlns="http://www.w3.org/2000/svg">
<path d="M31 6.91176V29.0882C31 29.5953 30.7986 30.0815 30.4401 30.4401C30.0815 30.7986 29.5953 31 29.0882 31H6.91176C6.40473 31 5.91847 30.7986 5.55994 30.4401C5.20142 30.0815 5 29.5953 5 29.0882V6.91176C5 6.40473 5.20142 5.91847 5.55994 5.55994C5.91847 5.20142 6.40473 5 6.91176 5H29.0882C29.5953 5 30.0815 5.20142 30.4401 5.55994C30.7986 5.91847 31 6.40473 31 6.91176V6.91176ZM12.6471 14.9412H8.82353V27.1765H12.6471V14.9412ZM12.9912 10.7353C12.9932 10.4461 12.9382 10.1593 12.8294 9.89132C12.7206 9.62334 12.56 9.37943 12.357 9.1735C12.1539 8.96757 11.9122 8.80366 11.6458 8.69113C11.3793 8.5786 11.0933 8.51965 10.8041 8.51765H10.7353C10.1471 8.51765 9.58307 8.75129 9.16718 9.16718C8.75129 9.58307 8.51765 10.1471 8.51765 10.7353C8.51765 11.3235 8.75129 11.8875 9.16718 12.3034C9.58307 12.7193 10.1471 12.9529 10.7353 12.9529V12.9529C11.0245 12.9601 11.3123 12.9101 11.5823 12.806C11.8522 12.7018 12.099 12.5455 12.3085 12.3459C12.518 12.1464 12.6861 11.9075 12.8032 11.643C12.9204 11.3784 12.9842 11.0934 12.9912 10.8041V10.7353ZM27.1765 19.7435C27.1765 16.0653 24.8365 14.6353 22.5118 14.6353C21.7506 14.5972 20.9928 14.7593 20.3138 15.1055C19.6349 15.4517 19.0586 15.9698 18.6424 16.6082H18.5353V14.9412H14.9412V27.1765H18.7647V20.6688C18.7094 20.0023 18.9194 19.3409 19.3489 18.8284C19.7785 18.3158 20.3929 17.9933 21.0588 17.9312H21.2041C22.42 17.9312 23.3224 18.6959 23.3224 20.6229V27.1765H27.1459L27.1765 19.7435Z" fill="#CACACA" style="fill:#CACACA;fill:color(display-p3 0.7922 0.7922 0.7922);fill-opacity:1;"/>
</svg>
